<?xml version="1.0" encoding="UTF-8"?>
<svg width="410" height="404" viewBox="0 0 410 404" fill="none" xmlns="http://www.w3.org/2000/svg">
<path d="M399.641 59.5246L215.643 388.545C211.844 395.338 202.084 395.378 198.228 388.618L10.5817 59.5563C6.38087 52.1896 12.6802 43.2665 21.0281 44.7586L205.223 77.6824C206.398 77.8924 207.601 77.8905 208.776 77.6769L389.119 44.8058C397.439 43.2893 403.768 52.1434 399.637 59.5411L399.641 59.5246Z" fill="url(#paint0_linear)"/>
<path d="M292.965 1.5744L156.789 28.2552C155.563 28.5003 154.492 29.187 153.75 30.1885C153.008 31.19 152.648 32.4348 152.732 33.6897L162.707 190.174C162.909 193.288 165.875 195.498 168.888 194.792L212.947 184.651C216.499 183.826 219.659 187.175 218.503 190.662L204.224 233.827C203.019 237.466 205.912 241.177 209.688 240.508L241.985 234.886C245.789 234.213 248.691 237.996 247.212 241.578L226.21 292.126C224.842 295.404 227.883 298.826 231.301 297.932L264.978 289.204C268.503 288.283 271.499 291.866 270.048 295.294L240.954 363.755C238.679 369.129 246.105 372.742 249.312 367.654L250.382 365.956L404.947 96.6789C407.144 92.6006 404.053 87.6265 399.438 88.5011L249.465 117.838C245.805 118.531 242.77 114.927 244.121 111.421L298.221 -0.00623272C299.828 -3.93661 296.236 -8.04164 292.965 -7.37765e-05V1.5744Z" fill="url(#paint1_linear)"/>
<defs>
<linearGradient id="paint0_linear" x1="6.00017" y1="32.9999" x2="235" y2="344" gradientUnits="userSpaceOnUse">
<stop stop-color="#41D1FF"/>
<stop offset="1" stop-color="#BD34FE"/>
</linearGradient>
<linearGradient id="paint1_linear" x1="194.651" y1="8.81818" x2="236.076" y2="292.989" gradientUnits="userSpaceOnUse">
<stop stop-color="#FFEA83"/>
<stop offset="0.0833333" stop-color="#FFDD35"/>
<stop offset="1" stop-color="#FFA800"/>
</linearGradient>
</defs>
</svg>
